<?xml version="1.0" encoding="UTF-8" standalone="no"?>
<svg
   xmlns:dc="http://purl.org/dc/elements/1.1/"
   xmlns:cc="http://creativecommons.org/ns#"
   xmlns:rdf="http://www.w3.org/1999/02/22-rdf-syntax-ns#"
   xmlns:svg="http://www.w3.org/2000/svg"
   xmlns="http://www.w3.org/2000/svg"
   xmlns:sodipodi="http://sodipodi.sourceforge.net/DTD/sodipodi-0.dtd"
   xmlns:inkscape="http://www.inkscape.org/namespaces/inkscape"
   version="1.1"
   id="svg2"
   xml:space="preserve"
   width="394.60001"
   height="117.24"
   viewBox="0 0 394.60001 117.24"
   sodipodi:docname="SLRG_Logo_DE_CMYK.eps"><metadata
     id="metadata8"><rdf:RDF><cc:Work
         rdf:about=""><dc:format>image/svg+xml</dc:format><dc:type
           rdf:resource="http://purl.org/dc/dcmitype/StillImage" /></cc:Work></rdf:RDF></metadata><defs
     id="defs6" /><sodipodi:namedview
     pagecolor="#ffffff"
     bordercolor="#666666"
     borderopacity="1"
     objecttolerance="10"
     gridtolerance="10"
     guidetolerance="10"
     inkscape:pageopacity="0"
     inkscape:pageshadow="2"
     inkscape:window-width="640"
     inkscape:window-height="480"
     id="namedview4" /><g
     id="g10"
     inkscape:groupmode="layer"
     inkscape:label="ink_ext_XXXXXX"
     transform="matrix(1.3333333,0,0,-1.3333333,0,117.24)"><g
       id="g12"
       transform="scale(0.1)"><path
         d="m 406.652,656.602 c 21.637,-40.993 17.43,-100.497 -9.73,-137.641 -32.906,-47.031 -89.715,-69.914 -146.969,-55.465 -47.18,10.727 -87.047,51.754 -98.734,98.473 -12.617,51.332 4.176,105.523 45.988,139.89 37.719,32.629 97.59,39.864 143.086,18.692 27.918,-12.211 52.609,-36.375 66.359,-63.949"
         style="fill:#ffffff;fill-opacity:1;fill-rule:nonzero;stroke:none"
         id="path14" /><path
         d="m 406.652,656.602 c 21.637,-40.993 17.43,-100.497 -9.73,-137.641 -32.906,-47.031 -89.715,-69.914 -146.969,-55.465 -47.18,10.727 -87.047,51.754 -98.734,98.473 -12.617,51.332 4.176,105.523 45.988,139.89 37.719,32.629 97.59,39.864 143.086,18.692 27.918,-12.211 52.609,-36.375 66.359,-63.949 z"
         style="fill:none;stroke:#2056ae;stroke-width:2.5;stroke-linecap:butt;stroke-linejoin:miter;stroke-miterlimit:4;stroke-dasharray:none;stroke-opacity:1"
         id="path16" /><path
         d="M 565.266,879.035 3.8125,879.258 V 111.395 H 564.379 l 0.887,767.64"
         style="fill:#2056ae;fill-opacity:1;fill-rule:nonzero;stroke:none"
         id="path18" /><path
         d="M 17.6016,125.664 V 864.973 H 551.547 V 125.664 H 17.6016"
         style="fill:#ffffff;fill-opacity:1;fill-rule:nonzero;stroke:none"
         id="path20" /><path
         d="M 539.266,354.25 C 518.891,353.762 491.625,350.523 475.094,338.727 447.188,318 414.051,289.324 376.828,307.32 c -26.848,13.278 -43.348,36.793 -74.621,41.571 -28.586,5.273 -62.855,-0.114 -86.387,-19.418 -26.117,-21.43 -39.507,-39.512 -70.312,-29.465 -33.067,9.355 -55.5822,44.195 -101.801,51.121 -7.2695,1.094 -7.6054,0.855 -15.3906,0.441 V 854.48 H 539.266 V 354.25"
         style="fill:#2056ae;fill-opacity:1;fill-rule:nonzero;stroke:none"
         id="path22" /><path
         d="M 501.699,684.656 C 535.32,607.777 519.332,510.785 466.105,448.133 404.645,373.281 300.27,345.188 211.512,374.441 124.066,401.801 57.3203,484.293 50.4453,575.215 c -9.0508,89.086 39,179.414 119.2617,224.23 75.977,44.883 186.262,38.598 255.84,-16.879 34.152,-25.453 60.394,-60.425 76.152,-97.91"
         style="fill:#ffffff;fill-opacity:1;fill-rule:nonzero;stroke:none"
         id="path24" /><path
         d="M 485.492,693.215 C 521.621,623.262 513.156,527.488 465.301,465.285 411.09,391.398 318.426,358.563 230.094,380.313 157.203,396.191 90.1563,459.395 69.8555,531.781 45.3398,607.98 69.2617,698.152 127.457,753.762 c 58.543,59.625 155.059,81.679 235.219,50.691 51.926,-19.035 98.176,-59.68 122.816,-111.238"
         style="fill:#2056ae;fill-opacity:1;fill-rule:nonzero;stroke:none"
         id="path26" /><path
         d="M 413.984,762.922 373.441,722.57 c -13.8,8.524 -29.746,16.274 -45.484,21.078 -45.609,12.77 -94.223,4.426 -131.324,-21.246 -14.004,13.352 -27.438,27.223 -40.883,41.094 58.855,46.231 145.555,57.457 215.242,25.555 15.172,-6.938 30.039,-15.211 42.992,-26.129"
         style="fill:#ffffff;fill-opacity:1;fill-rule:nonzero;stroke:none"
         id="path28" /><path
         d="m 428.793,750.633 c -12.004,-14.012 -26.945,-27.168 -40.012,-40.625 -2.386,1.91 -4.238,3.281 -6.351,5.191 13.883,14.246 26.398,26.106 40.554,40.348 2.114,-1.371 3.977,-2.738 5.809,-4.914"
         style="fill:#ffffff;fill-opacity:1;fill-rule:nonzero;stroke:none"
         id="path30" /><path
         d="m 186.879,715.863 -5.168,-5.011 c -13.992,13.078 -27.719,26.418 -40.891,40.293 l 5.961,4.992 c 13.196,-13.063 26.653,-25.867 40.098,-40.274"
         style="fill:#ffffff;fill-opacity:1;fill-rule:nonzero;stroke:none"
         id="path32" /><path
         d="M 442.508,736.758 C 428.895,723.039 415.566,709.586 401.691,696.41 l -5.261,6.242 40.543,39.821 c 1.843,-1.637 3.695,-3.543 5.535,-5.715"
         style="fill:#ffffff;fill-opacity:1;fill-rule:nonzero;stroke:none"
         id="path34" /><path
         d="m 172.48,703.496 c -0.566,-1.867 -2.207,-3.98 -4.101,-5.562 l -1.328,0.554 -39.301,39.196 5.18,5.812 39.55,-40"
         style="fill:#ffffff;fill-opacity:1;fill-rule:nonzero;stroke:none"
         id="path36" /><path
         d="m 412.145,659.172 c 22.183,-42.672 17.546,-104.449 -10.704,-142.914 -34.214,-48.695 -93.05,-72.199 -152.179,-56.914 -48.719,11.347 -89.746,54.136 -101.621,102.707 -12.797,53.371 4.824,109.574 48.195,145.07 39.144,33.723 101.066,40.965 148.004,18.762 28.805,-12.805 54.223,-38.008 68.305,-66.711"
         style="fill:#ffffff;fill-opacity:1;fill-rule:nonzero;stroke:none"
         id="path38" /><path
         d="m 412.145,659.172 c 22.183,-42.672 17.546,-104.449 -10.704,-142.914 -34.214,-48.695 -93.05,-72.199 -152.179,-56.914 -48.719,11.347 -89.746,54.136 -101.621,102.707 -12.797,53.371 4.824,109.574 48.195,145.07 39.144,33.723 101.066,40.965 148.004,18.762 28.805,-12.805 54.223,-38.008 68.305,-66.711 z"
         style="fill:none;stroke:#ffffff;stroke-width:5;stroke-linecap:butt;stroke-linejoin:miter;stroke-miterlimit:4;stroke-dasharray:none;stroke-opacity:1"
         id="path40" /><path
         d="m 402.371,653.816 c 20.738,-39.128 16.711,-95.89 -9.344,-131.336 -31.523,-44.882 -85.988,-66.687 -140.886,-52.89 -45.246,10.215 -83.469,49.355 -94.664,93.93 -12.106,48.976 3.996,100.675 44.082,133.468 36.183,31.133 93.574,38.024 137.195,17.825 26.766,-11.649 50.457,-34.692 63.617,-60.997"
         style="fill:#ffffff;fill-opacity:1;fill-rule:nonzero;stroke:none"
         id="path42" /><path
         d="m 402.371,653.816 c 20.738,-39.128 16.711,-95.89 -9.344,-131.336 -31.523,-44.882 -85.988,-66.687 -140.886,-52.89 -45.246,10.215 -83.469,49.355 -94.664,93.93 -12.106,48.976 3.996,100.675 44.082,133.468 36.183,31.133 93.574,38.024 137.195,17.825 26.766,-11.649 50.457,-34.692 63.617,-60.997 z"
         style="fill:none;stroke:#2056ae;stroke-width:8.5;stroke-linecap:butt;stroke-linejoin:miter;stroke-miterlimit:4;stroke-dasharray:none;stroke-opacity:1"
         id="path44" /><path
         d="m 450.137,728.063 c 15.769,-19.27 26.691,-40.872 35.179,-63.508 C 508.66,599.359 496.164,519.723 452.73,467.09 l -40.617,40.289 0.567,2.137 c 34.515,48.214 35.867,117.308 3.972,167.105 l -8.117,11.91 40.543,40.086 1.059,-0.554"
         style="fill:#ffffff;fill-opacity:1;fill-rule:nonzero;stroke:none"
         id="path46" /><path
         d="M 160.195,688.684 C 127.637,645.801 119.434,583.773 142.23,534.125 c 4.688,-8.383 8.028,-17.543 14.598,-25.41 -12.797,-13.195 -28.566,-27.949 -41.09,-40.613 -49.406,60.785 -57.5778,154.14 -20.5935,223.746 6.9065,13.554 15.6755,25.742 24.9765,37.652 13.719,-13.074 27.957,-27.23 40.074,-40.816"
         style="fill:#ffffff;fill-opacity:1;fill-rule:nonzero;stroke:none"
         id="path48" /><path
         d="m 445.637,458.633 c -1.36,-1.856 -3.535,-3.965 -4.918,-5.82 -13.715,12.808 -27.684,27.492 -40.629,39.75 0.578,2.402 3.023,4.511 4.918,6.355 12.933,-13.063 27.457,-26.418 40.629,-40.285"
         style="fill:#ffffff;fill-opacity:1;fill-rule:nonzero;stroke:none"
         id="path50" /><path
         d="m 168.914,493.52 c -12.535,-13.731 -27.219,-27.168 -40.012,-40.364 -2.125,1.379 -3.957,3.817 -6.07,5.996 12.262,13.469 28.305,27.95 40.816,40.344 l 5.266,-5.976"
         style="fill:#ffffff;fill-opacity:1;fill-rule:nonzero;stroke:none"
         id="path52" /><path
         d="m 427.402,439.898 c -13.476,12.266 -27.718,26.684 -41.164,40.293 l 5.43,4.739 40.355,-40.016 -4.621,-5.016"
         style="fill:#ffffff;fill-opacity:1;fill-rule:nonzero;stroke:none"
         id="path54" /><path
         d="m 180.184,477.805 -38.36,-37.703 c -1.851,1.636 -6.636,4.121 -4.719,6.5 l 39.184,38.769 5.816,-4.918 -1.921,-2.648"
         style="fill:#ffffff;fill-opacity:1;fill-rule:nonzero;stroke:none"
         id="path56" /><path
         d="m 418.172,432.539 c -57.297,-48.926 -148.035,-61.43 -216.676,-30.613 -18.637,7.523 -35.344,18.238 -51.754,30.812 14.43,14.508 26.129,26.117 40.832,40.621 49.5,-37.484 121.239,-41.289 174.254,-8.64 l 12.723,8.379 c 13.73,-12.809 27.176,-26.95 40.621,-40.559"
         style="fill:#ffffff;fill-opacity:1;fill-rule:nonzero;stroke:none"
         id="path58" /><path
         d="m 540.363,298.012 c -32.625,4.265 -60.008,-16.735 -84.679,-35.106 -17.305,-10.972 -37.008,-19.773 -58.629,-14.617 -33.887,8.035 -55.578,42.668 -89.512,48.828 -29.613,7.969 -64.32,-1.402 -87.684,-22.195 -23.355,-20.266 -55.496,-37.172 -86.125,-25.703 l -11.968,5.808 c -22.8012,15.094 -42.0238,36.293 -68.473,41.266 -8.0039,1.73 -16.6485,3.984 -24.9766,3.043 v 19.422 l 2.2813,-0.949 c 36.4453,0.238 66.5976,-23.813 94.3903,-45.414 20.434,-12.645 48.34,-9.336 68.086,2.949 22.996,14.101 44.239,35.738 72.153,39.582 31.976,5.929 65.074,-2.09 88.566,-23.891 20.934,-14.797 45.293,-32.859 73.031,-23.922 37.711,13.071 64.551,50.422 107.942,49.473 l 5.605,-0.356 -0.008,-18.218"
         style="fill:#2056ae;fill-opacity:1;fill-rule:nonzero;stroke:none"
         id="path60" /><path
         d="m 540.32,261.582 c -0.093,-6.434 -0.48,-13.656 -0.043,-19.824 -34.515,2.949 -63.5,-18.024 -88.988,-37.184 -19.223,-12.554 -47.172,-18.008 -67.887,-6.969 -27.957,11.157 -46.769,40.922 -78.316,44.899 -28.859,5.008 -59.488,-0.402 -82.809,-18.254 -26.347,-22.891 -60.675,-43.242 -94.714,-26.637 -20.739,10.239 -37.3013,30.321 -59.4028,38.703 -12.5235,4.215 -24.5235,7.618 -38.9844,7.579 -0.4414,6.171 -0.0742,13.128 0.0312,19.558 35.8672,-1.906 64.4532,-24.055 93.063,-44.594 19.105,-12.093 45.89,-11.976 65.089,-0.488 28.411,17.5 55.09,44.672 92.047,43.559 21.703,0.726 41.969,-5.485 59.477,-16.742 26.742,-19.708 57.953,-44.844 93.539,-30.938 33.16,12.875 55.363,45.203 92.625,46.766 6.433,0.433 8.848,0.664 15.273,0.566"
         style="fill:#2056ae;fill-opacity:1;fill-rule:nonzero;stroke:none"
         id="path62" /><path
         d="m 28.3164,135.941 c -0.6914,23.856 -0.082,52.235 0,75 27.0781,0.914 49.6602,-14.961 71.4024,-29.234 21.4292,-17.211 46.1132,-31.809 74.6562,-22.34 33.348,7.516 52.402,43.914 86.762,48.735 25.551,6.296 54.398,0.488 76.414,-13.258 26.691,-22.66 58.176,-48.063 96.429,-34.461 24.508,7.648 40.965,32.035 65.735,39.949 12.406,5.43 25.832,7.359 39.769,7.68 0.692,-24.391 -0.367,-47.418 -0.218,-72.071 H 28.3164"
         style="fill:#2056ae;fill-opacity:1;fill-rule:nonzero;stroke:none"
         id="path64" /><path
         d="M 313.516,505.922 V 687.406 H 254.742 V 505.922 h 58.774"
         style="fill:#ffffff;fill-opacity:1;fill-rule:nonzero;stroke:none"
         id="path66" /><path
         d="M 313.516,505.922 V 687.406 H 254.742 V 505.922 Z"
         style="fill:none;stroke:#ffffff;stroke-width:20;stroke-linecap:butt;stroke-linejoin:miter;stroke-miterlimit:4;stroke-dasharray:none;stroke-opacity:1"
         id="path68" /><path
         d="M 374.875,626.047 H 193.387 v -58.766 h 181.488 v 58.766"
         style="fill:#ffffff;fill-opacity:1;fill-rule:nonzero;stroke:none"
         id="path70" /><path
         d="M 374.875,626.047 H 193.387 v -58.766 h 181.488 z"
         style="fill:none;stroke:#ffffff;stroke-width:20;stroke-linecap:butt;stroke-linejoin:miter;stroke-miterlimit:4;stroke-dasharray:none;stroke-opacity:1"
         id="path72" /><path
         d="M 311.184,513.141 V 680.188 H 257.078 V 513.141 h 54.106"
         style="fill:#ed1c24;fill-opacity:1;fill-rule:nonzero;stroke:none"
         id="path74" /><path
         d="M 311.184,513.141 V 680.188 H 257.078 V 513.141 Z"
         style="fill:none;stroke:#ed1c24;stroke-width:5;stroke-linecap:butt;stroke-linejoin:miter;stroke-miterlimit:4;stroke-dasharray:none;stroke-opacity:1"
         id="path76" /><path
         d="M 367.652,623.707 H 200.605 v -54.086 h 167.047 v 54.086"
         style="fill:#ed1c24;fill-opacity:1;fill-rule:nonzero;stroke:none"
         id="path78" /><path
         d="M 367.652,623.707 H 200.605 v -54.086 h 167.047 z"
         style="fill:none;stroke:#ed1c24;stroke-width:5;stroke-linecap:butt;stroke-linejoin:miter;stroke-miterlimit:4;stroke-dasharray:none;stroke-opacity:1"
         id="path80" /><path
         d="m 17.582,29.3398 c 0,-10.996 8.5469,-15.2773 18.2578,-15.2773 6.3516,0 16.0625,1.8516 16.0625,10.2969 0,8.914 -12.3671,10.4101 -24.5898,13.9258 -12.2656,3.2461 -24.63281,7.9843 -24.63281,23.4921 0,16.875 15.95701,24.9454 30.87891,24.9454 17.2344,0 33.0742,-7.4961 33.0742,-26.5664 H 49.0547 c -0.5742,9.957 -7.6367,12.5 -16.3008,12.5 -5.7891,0 -12.4922,-2.4258 -12.4922,-9.375 0,-6.3594 3.9336,-7.1758 24.711,-12.7657 C 68.1172,44.7109 69.4805,36.2148 69.4805,26.4531 69.4805,11.3008 57.5742,0 35.1367,0 16.8789,0 -0.226563,8.98828 0.00390625,29.3398 H 17.582"
         style="fill:#ed1c24;fill-opacity:1;fill-rule:nonzero;stroke:none"
         id="path82" /><path
         d="M 80.1406,84.7109 H 98.3594 V 17.2422 H 138.621 V 2.00781 H 80.1406 V 84.7109"
         style="fill:#ed1c24;fill-opacity:1;fill-rule:nonzero;stroke:none"
         id="path84" /><path
         d="m 148.762,2.00781 h 18.203 V 34.3203 h 18.211 c 9.152,0 12.512,-3.832 13.789,-12.5156 0.93,-6.5899 0.699,-14.58595 2.898,-19.79689 h 18.153 c -3.235,4.625 -3.129,14.35549 -3.473,19.57809 -0.574,8.3399 -3.117,16.9922 -12.035,19.293 v 0.2305 c 9.238,3.6836 13.195,11 13.195,20.7929 0,12.543 -9.406,22.8086 -24.265,22.8086 h -44.676 z m 18.203,68.64059 h 19.976 c 8.129,0 12.536,-3.4961 12.536,-11.5507 0,-8.3946 -4.407,-11.8868 -12.536,-11.8868 h -19.976 v 23.4375"
         style="fill:#ed1c24;fill-opacity:1;fill-rule:nonzero;stroke:none"
         id="path86" /><path
         d="M 292.047,11.3125 C 285.695,3.11719 277.375,0 269.414,0 c -25.543,0 -40.621,19.0742 -40.621,43.0156 0,24.6407 15.078,43.7071 40.621,43.7071 16.856,0 32.793,-10.3946 34.77,-29.1836 h -17.336 c -2.075,9.1875 -8.895,13.9453 -17.434,13.9453 -16.293,0 -22.41,-13.9453 -22.41,-28.4688 0,-13.832 6.117,-27.7812 22.41,-27.7812 11.77,0 18.582,6.3945 19.629,17.9219 h -18.289 v 13.5429 h 34.695 V 2.00781 h -11.562 l -1.84,9.30469"
         style="fill:#ed1c24;fill-opacity:1;fill-rule:nonzero;stroke:none"
         id="path88" /><path
         d="m 364.84,29.3398 c 0,-10.996 8.551,-15.2773 18.258,-15.2773 6.363,0 16.062,1.8516 16.062,10.2969 0,8.914 -12.367,10.4101 -24.59,13.9258 -12.25,3.2461 -24.629,7.9843 -24.629,23.4921 0,16.875 15.954,24.9454 30.875,24.9454 17.235,0 33.075,-7.4961 33.075,-26.5664 h -17.578 c -0.586,9.957 -7.637,12.5 -16.313,12.5 -5.773,0 -12.48,-2.4258 -12.48,-9.375 0,-6.3594 3.933,-7.1758 24.71,-12.7657 5.997,-1.5039 24.508,-5.3242 24.508,-24.0625 C 416.738,11.3008 404.82,0 382.406,0 364.148,0 347.031,8.98828 347.262,29.3398 h 17.578"
         style="fill:#ed1c24;fill-opacity:1;fill-rule:nonzero;stroke:none"
         id="path90" /><path
         d="m 439.945,29.3398 c 0,-10.996 8.539,-15.2773 18.25,-15.2773 6.36,0 16.059,1.8516 16.059,10.2969 0,8.914 -12.367,10.4101 -24.578,13.9258 -12.262,3.2461 -24.629,7.9843 -24.629,23.4921 0,16.875 15.945,24.9454 30.867,24.9454 17.231,0 33.074,-7.4961 33.074,-26.5664 h -17.566 c -0.586,9.957 -7.641,12.5 -16.317,12.5 -5.773,0 -12.48,-2.4258 -12.48,-9.375 0,-6.3594 3.926,-7.1758 24.695,-12.7657 6.016,-1.5039 24.512,-5.3242 24.512,-24.0625 C 491.832,11.3008 479.926,0 457.504,0 439.242,0 422.129,8.98828 422.367,29.3398 h 17.578"
         style="fill:#ed1c24;fill-opacity:1;fill-rule:nonzero;stroke:none"
         id="path92" /><path
         d="m 515.043,29.3398 c 0,-10.996 8.547,-15.2773 18.258,-15.2773 6.351,0 16.051,1.8516 16.051,10.2969 0,8.914 -12.36,10.4101 -24.579,13.9258 -12.265,3.2461 -24.64,7.9843 -24.64,23.4921 0,16.875 15.965,24.9454 30.887,24.9454 17.234,0 33.062,-7.4961 33.062,-26.5664 h -17.566 c -0.575,9.957 -7.637,12.5 -16.313,12.5 -5.785,0 -12.48,-2.4258 -12.48,-9.375 0,-6.3594 3.929,-7.1758 24.703,-12.7657 C 548.43,49.0117 566.93,45.1914 566.93,26.4531 566.93,11.3008 555.023,0 532.598,0 514.34,0 497.234,8.98828 497.453,29.3398 h 17.59"
         style="fill:#ed1c24;fill-opacity:1;fill-rule:nonzero;stroke:none"
         id="path94" /><path
         d="m 667.762,520.504 h 38.437 V 357.027 h -38.437 v 163.477"
         style="fill:#ed1c24;fill-opacity:1;fill-rule:nonzero;stroke:none"
         id="path96" /><path
         d="M 729.988,520.504 H 767.02 V 458.98 c 3.593,4.141 7.441,7.227 11.543,9.258 4.101,2.032 8.457,3.047 13.066,3.047 8.828,0 16.074,-3.379 21.738,-10.137 5.664,-6.757 8.496,-15.058 8.496,-24.902 v -79.219 h -37.265 v 73.477 c 0,6.016 -2.461,9.023 -7.383,9.023 -3.36,0 -5.899,-1.64 -7.617,-4.922 -1.719,-3.281 -2.578,-8.203 -2.578,-14.765 v -62.813 h -37.032 v 163.477"
         style="fill:#ed1c24;fill-opacity:1;fill-rule:nonzero;stroke:none"
         id="path98" /><path
         d="m 880.457,453.941 c 2.266,5.782 5.039,10.118 8.32,13.008 3.282,2.891 7.11,4.336 11.485,4.336 2.812,0 5.82,-0.859 9.023,-2.578 v -35.156 c -3.828,1.875 -7.305,2.812 -10.43,2.812 -4.765,0 -8.71,-1.933 -11.835,-5.8 -3.125,-3.868 -4.688,-8.809 -4.688,-14.825 v -58.711 h -37.734 v 111.68 h 32.109 l 3.75,-14.766"
         style="fill:#ed1c24;fill-opacity:1;fill-rule:nonzero;stroke:none"
         id="path100" /><path
         d="m 985.75,427.926 v 3.75 c 0,5.078 -1.332,9.414 -3.996,13.008 -2.668,3.593 -6.004,5.39 -10.008,5.39 -4.699,0 -8.336,-1.836 -10.883,-5.508 -2.55,-3.671 -4.019,-9.218 -4.41,-16.64 z m 28.13,-61.406 c -14.321,-8.047 -27.657,-12.071 -40.013,-12.071 -16.113,0 -29.199,5.43 -39.25,16.289 -10.054,10.86 -15.078,24.766 -15.078,41.719 0,16.406 4.754,30.313 14.254,41.719 9.508,11.406 22.195,17.109 38.074,17.109 14.078,0 25.344,-4.883 33.793,-14.648 8.45,-9.766 12.67,-22.852 12.67,-39.258 v -9.258 h -60.119 c 1.719,-7.5 4.66,-13.125 8.809,-16.875 4.152,-3.75 9.511,-5.625 16.089,-5.625 5.086,0 9.746,1.133 13.969,3.399 4.232,2.265 9.832,6.328 16.802,12.187 V 366.52"
         style="fill:#ed1c24;fill-opacity:1;fill-rule:nonzero;stroke:none"
         id="path102" /><path
         d="m 1135.28,488.746 v -35.039 h 8.32 c 5.94,0 10.47,1.758 13.6,5.273 3.12,3.516 4.68,7.969 4.68,13.36 0,5.469 -1.36,9.57 -4.1,12.305 -2.73,2.734 -6.87,4.101 -12.42,4.101 z m -38.08,31.758 h 58.71 c 13.28,0 24.04,-3.438 32.28,-10.313 8.24,-6.875 12.37,-16.64 12.37,-29.296 0,-10.391 -2.95,-19.239 -8.85,-26.543 -5.9,-7.305 -14.75,-13.067 -26.55,-17.286 14.77,-2.343 23.91,-11.718 27.43,-28.125 l 11.13,-51.914 H 1162 l -6.1,45.235 c -1.1,7.656 -2.91,13.242 -5.45,16.758 -2.54,3.515 -6.42,5.273 -11.65,5.273 h -3.52 v -67.266 h -38.08 v 163.477"
         style="fill:#ed1c24;fill-opacity:1;fill-rule:nonzero;stroke:none"
         id="path104" /><path
         d="m 1276.18,427.926 v 3.75 c 0,5.078 -1.34,9.414 -4,13.008 -2.67,3.593 -6,5.39 -10.01,5.39 -4.7,0 -8.33,-1.836 -10.88,-5.508 -2.55,-3.671 -4.02,-9.218 -4.41,-16.64 z m 28.12,-61.406 c -14.32,-8.047 -27.65,-12.071 -40.01,-12.071 -16.11,0 -29.2,5.43 -39.25,16.289 -10.05,10.86 -15.08,24.766 -15.08,41.719 0,16.406 4.76,30.313 14.26,41.719 9.5,11.406 22.19,17.109 38.07,17.109 14.08,0 25.35,-4.883 33.79,-14.648 8.45,-9.766 12.67,-22.852 12.67,-39.258 v -9.258 h -60.11 c 1.72,-7.5 4.65,-13.125 8.81,-16.875 4.15,-3.75 9.51,-5.625 16.08,-5.625 5.09,0 9.75,1.133 13.97,3.399 4.23,2.265 9.83,6.328 16.8,12.187 V 366.52"
         style="fill:#ed1c24;fill-opacity:1;fill-rule:nonzero;stroke:none"
         id="path106" /><path
         d="m 1337.46,502.34 h 30.94 v -33.633 h 18.52 v -27.305 h -16.88 v -45.703 c 0,-7.031 2.82,-10.547 8.44,-10.547 2.73,0 5.55,1.055 8.44,3.164 v -30.234 c -6.88,-2.422 -13.87,-3.633 -20.98,-3.633 -11.56,0 -20.06,2.754 -25.49,8.262 -5.43,5.508 -8.14,14.043 -8.14,25.605 v 53.086 h -13.71 v 27.305 h 15.82 l 3.04,33.633"
         style="fill:#ed1c24;fill-opacity:1;fill-rule:nonzero;stroke:none"
         id="path108" /><path
         d="m 1414.93,502.34 h 30.93 v -33.633 h 18.52 v -27.305 h -16.88 v -45.703 c 0,-7.031 2.82,-10.547 8.44,-10.547 2.74,0 5.55,1.055 8.44,3.164 v -30.234 c -6.88,-2.422 -13.87,-3.633 -20.98,-3.633 -11.56,0 -20.06,2.754 -25.49,8.262 -5.43,5.508 -8.14,14.043 -8.14,25.605 v 53.086 h -13.71 v 27.305 h 15.82 l 3.05,33.633"
         style="fill:#ed1c24;fill-opacity:1;fill-rule:nonzero;stroke:none"
         id="path110" /><path
         d="m 1482.66,468.707 h 37.03 v -69.141 c 0,-4.218 0.61,-7.402 1.82,-9.55 1.21,-2.149 2.99,-3.223 5.33,-3.223 2.73,0 5.02,1.23 6.86,3.691 1.83,2.461 2.75,5.489 2.75,9.082 v 69.141 h 37.73 v -111.68 h -32.11 l -3.51,11.133 c -3.67,-4.531 -7.6,-7.949 -11.78,-10.254 -4.18,-2.304 -8.65,-3.457 -13.42,-3.457 -8.9,0 -16.25,3.633 -22.03,10.899 -5.78,7.265 -8.67,16.289 -8.67,27.07 v 76.289"
         style="fill:#ed1c24;fill-opacity:1;fill-rule:nonzero;stroke:none"
         id="path112" /><path
         d="m 1633.25,457.105 c 3.29,4.766 7.02,8.321 11.21,10.665 4.19,2.343 8.87,3.515 14.03,3.515 8.85,0 16.23,-3.222 22.14,-9.668 5.91,-6.445 8.87,-14.472 8.87,-24.082 v -80.508 h -37.27 v 72.774 c 0,6.328 -2.34,9.492 -7.03,9.492 -3.28,0 -5.9,-1.719 -7.85,-5.156 -1.96,-3.438 -2.93,-8.242 -2.93,-14.414 v -62.696 h -36.8 v 111.68 h 31.99 l 3.64,-11.602"
         style="fill:#ed1c24;fill-opacity:1;fill-rule:nonzero;stroke:none"
         id="path114" /><path
         d="m 1768.71,434.605 c -1.71,1.954 -3.43,3.399 -5.15,4.336 -1.72,0.938 -3.44,1.407 -5.16,1.407 -4.29,0 -7.69,-2.325 -10.19,-6.973 -2.5,-4.648 -3.75,-10.723 -3.75,-18.223 0,-7.656 1.21,-13.847 3.63,-18.574 2.42,-4.726 5.59,-7.09 9.49,-7.09 3.75,0 6.54,1.797 8.38,5.391 1.84,3.594 2.75,8.945 2.75,16.055 z m 0,-64.101 c -3.2,-4.453 -6.75,-7.813 -10.66,-10.078 -3.91,-2.266 -8.2,-3.399 -12.89,-3.399 -10.47,0 -19.49,5.469 -27.07,16.407 -7.58,10.937 -11.37,24.101 -11.37,39.492 0,15 3.83,28.476 11.49,40.429 7.65,11.954 17.46,17.93 29.41,17.93 4.53,0 8.75,-0.957 12.66,-2.871 3.9,-1.914 7.5,-4.824 10.78,-8.73 l 10.08,9.023 h 24.84 V 361.48 c 0,-16.64 -4.61,-30.644 -13.83,-42.011 -9.22,-11.367 -22.3,-17.051 -39.26,-17.051 -12.42,0 -25.35,3.477 -38.78,10.43 v 36.797 c 11.79,-9.219 22.07,-13.829 30.82,-13.829 6.79,0 12.46,2.286 16.99,6.856 4.53,4.57 6.79,10.332 6.79,17.285 v 10.547"
         style="fill:#ed1c24;fill-opacity:1;fill-rule:nonzero;stroke:none"
         id="path116" /><path
         d="m 1825.78,398.16 c 11.95,-9.844 22.3,-14.765 31.05,-14.765 3.36,0 6.25,0.878 8.68,2.636 2.42,1.758 3.63,4.082 3.63,6.973 0,2.187 -0.96,4.043 -2.87,5.566 -1.92,1.524 -5.49,3.301 -10.72,5.332 -12.5,4.844 -20.59,10.118 -24.26,15.821 -3.67,5.703 -5.51,11.367 -5.51,16.992 0,10.39 4.28,18.75 12.83,25.078 8.56,6.328 18.97,9.492 31.23,9.492 10.63,0 21.14,-2.422 31.53,-7.265 v -33.165 c -8.68,7.5 -17,11.25 -24.96,11.25 -3.6,0 -6.29,-0.585 -8.09,-1.757 -1.8,-1.172 -2.7,-2.969 -2.7,-5.391 0,-3.281 3.87,-6.172 11.61,-8.672 21.01,-6.953 31.52,-18.086 31.52,-33.398 0,-10.782 -4.32,-19.883 -12.95,-27.305 -8.63,-7.422 -19.75,-11.133 -33.34,-11.133 -11.41,0 -23.63,3.242 -36.68,9.727 v 33.984"
         style="fill:#ed1c24;fill-opacity:1;fill-rule:nonzero;stroke:none"
         id="path118" /><path
         d="m 1923.28,398.16 c 11.95,-9.844 22.3,-14.765 31.05,-14.765 3.36,0 6.25,0.878 8.68,2.636 2.42,1.758 3.63,4.082 3.63,6.973 0,2.187 -0.96,4.043 -2.87,5.566 -1.92,1.524 -5.49,3.301 -10.72,5.332 -12.5,4.844 -20.59,10.118 -24.26,15.821 -3.67,5.703 -5.51,11.367 -5.51,16.992 0,10.39 4.28,18.75 12.83,25.078 8.56,6.328 18.97,9.492 31.23,9.492 10.63,0 21.14,-2.422 31.53,-7.265 v -33.165 c -8.68,7.5 -17,11.25 -24.96,11.25 -3.6,0 -6.29,-0.585 -8.09,-1.757 -1.8,-1.172 -2.7,-2.969 -2.7,-5.391 0,-3.281 3.87,-6.172 11.61,-8.672 21.01,-6.953 31.52,-18.086 31.52,-33.398 0,-10.782 -4.32,-19.883 -12.95,-27.305 -8.63,-7.422 -19.75,-11.133 -33.34,-11.133 -11.41,0 -23.63,3.242 -36.68,9.727 v 33.984"
         style="fill:#ed1c24;fill-opacity:1;fill-rule:nonzero;stroke:none"
         id="path120" /><path
         d="m 2091.33,361.363 c -8.05,-4.609 -15.94,-6.914 -23.67,-6.914 -13.6,0 -25.06,5.606 -34.4,16.817 -9.34,11.211 -14,25.019 -14,41.425 0,16.329 4.78,30.176 14.35,41.543 9.57,11.368 21.55,17.051 35.92,17.051 6.33,0 13.59,-1.562 21.8,-4.687 v -33.633 c -5.1,3.672 -9.64,5.508 -13.65,5.508 -5.72,0 -10.53,-2.344 -14.46,-7.032 -3.91,-4.687 -5.88,-10.625 -5.88,-17.812 0,-7.188 1.98,-13.223 5.94,-18.106 3.96,-4.882 8.6,-7.324 13.94,-7.324 4.62,0 9.32,2.071 14.11,6.211 v -33.047"
         style="fill:#ed1c24;fill-opacity:1;fill-rule:nonzero;stroke:none"
         id="path122" /><path
         d="m 2112.66,520.504 h 37.03 V 458.98 c 3.59,4.141 7.44,7.227 11.54,9.258 4.1,2.032 8.46,3.047 13.07,3.047 8.82,0 16.07,-3.379 21.73,-10.137 5.67,-6.757 8.5,-15.058 8.5,-24.902 v -79.219 h -37.27 v 73.477 c 0,6.016 -2.46,9.023 -7.38,9.023 -3.36,0 -5.9,-1.64 -7.62,-4.922 -1.71,-3.281 -2.57,-8.203 -2.57,-14.765 v -62.813 h -37.03 v 163.477"
         style="fill:#ed1c24;fill-opacity:1;fill-rule:nonzero;stroke:none"
         id="path124" /><path
         d="m 2215.14,468.707 h 37.5 l 11.48,-76.172 9.18,76.172 h 36.8 l 9.33,-78.281 12.07,78.281 h 37.27 l -29.53,-111.68 h -37.42 l -10.04,85.313 -10.36,-85.313 h -36.87 l -29.41,111.68"
         style="fill:#ed1c24;fill-opacity:1;fill-rule:nonzero;stroke:none"
         id="path126" /><path
         d="m 2380.9,468.707 h 37.26 v -111.68 h -37.26 z m 18.86,54.492 c 5.08,0 9.69,-1.836 13.83,-5.508 4.14,-3.671 6.21,-8.437 6.21,-14.296 0,-5.547 -1.97,-10.235 -5.91,-14.063 -3.95,-3.828 -8.66,-5.742 -14.13,-5.742 -5.62,0 -10.37,1.973 -14.23,5.918 -3.87,3.945 -5.8,8.613 -5.8,14.004 0,5.468 1.99,10.117 5.97,13.945 3.99,3.828 8.67,5.742 14.06,5.742"
         style="fill:#ed1c24;fill-opacity:1;fill-rule:nonzero;stroke:none"
         id="path128" /><path
         d="m 2529.61,453.238 c 3.52,6.016 7.63,10.528 12.33,13.535 4.7,3.008 10.02,4.512 15.97,4.512 9.63,0 17.33,-3.574 23.13,-10.722 5.79,-7.149 8.69,-16.348 8.69,-27.598 v -75.938 h -37.27 v 68.672 c 0,8.75 -2.5,13.125 -7.5,13.125 -3.44,0 -6.02,-1.621 -7.73,-4.863 -1.72,-3.242 -2.58,-8.145 -2.58,-14.707 v -62.227 h -36.92 v 68.672 c 0,8.75 -2.46,13.125 -7.38,13.125 -3.05,0 -5.51,-1.66 -7.38,-4.98 -1.88,-3.321 -2.81,-7.442 -2.81,-12.364 v -64.453 h -36.68 v 111.68 h 31.4 l 4.1,-12.07 c 3.28,4.922 7.03,8.593 11.25,11.015 4.22,2.422 8.95,3.633 14.18,3.633 11.33,0 19.73,-6.015 25.2,-18.047"
         style="fill:#ed1c24;fill-opacity:1;fill-rule:nonzero;stroke:none"
         id="path130" /><path
         d="m 2699.65,453.238 c 3.52,6.016 7.63,10.528 12.33,13.535 4.7,3.008 10.02,4.512 15.97,4.512 9.63,0 17.33,-3.574 23.13,-10.722 5.79,-7.149 8.68,-16.348 8.68,-27.598 v -75.938 h -37.26 v 68.672 c 0,8.75 -2.5,13.125 -7.5,13.125 -3.44,0 -6.02,-1.621 -7.74,-4.863 -1.71,-3.242 -2.57,-8.145 -2.57,-14.707 v -62.227 h -36.92 v 68.672 c 0,8.75 -2.46,13.125 -7.38,13.125 -3.05,0 -5.51,-1.66 -7.38,-4.98 -1.88,-3.321 -2.82,-7.442 -2.82,-12.364 v -64.453 h -36.68 v 111.68 h 31.41 l 4.1,-12.07 c 3.28,4.922 7.03,8.593 11.25,11.015 4.22,2.422 8.95,3.633 14.18,3.633 11.33,0 19.73,-6.015 25.2,-18.047"
         style="fill:#ed1c24;fill-opacity:1;fill-rule:nonzero;stroke:none"
         id="path132" /><path
         d="m 2843.55,427.926 v 3.75 c 0,5.078 -1.32,9.414 -3.99,13.008 -2.67,3.593 -6.01,5.39 -10.01,5.39 -4.7,0 -8.33,-1.836 -10.88,-5.508 -2.55,-3.671 -4.02,-9.218 -4.41,-16.64 z m 28.13,-61.406 c -14.32,-8.047 -27.65,-12.071 -40.01,-12.071 -16.11,0 -29.2,5.43 -39.25,16.289 -10.05,10.86 -15.08,24.766 -15.08,41.719 0,16.406 4.76,30.313 14.26,41.719 9.5,11.406 22.2,17.109 38.08,17.109 14.07,0 25.34,-4.883 33.79,-14.648 8.44,-9.766 12.66,-22.852 12.66,-39.258 v -9.258 h -60.12 c 1.72,-7.5 4.66,-13.125 8.81,-16.875 4.15,-3.75 9.51,-5.625 16.1,-5.625 5.08,0 9.74,1.133 13.96,3.399 4.23,2.265 9.84,6.328 16.8,12.187 V 366.52"
         style="fill:#ed1c24;fill-opacity:1;fill-rule:nonzero;stroke:none"
         id="path134" /><path
         d="m 2930.62,453.941 c 2.27,5.782 5.04,10.118 8.32,13.008 3.29,2.891 7.11,4.336 11.49,4.336 2.81,0 5.82,-0.859 9.02,-2.578 v -35.156 c -3.83,1.875 -7.3,2.812 -10.43,2.812 -4.76,0 -8.71,-1.933 -11.83,-5.8 -3.13,-3.868 -4.69,-8.809 -4.69,-14.825 v -58.711 h -37.74 v 111.68 h 32.11 l 3.75,-14.766"
         style="fill:#ed1c24;fill-opacity:1;fill-rule:nonzero;stroke:none"
         id="path136" /></g></g></svg>
